<svg version="1.1" viewBox="0 0 96 96" xmlns="http://www.w3.org/2000/svg" xmlns:xlink="http://www.w3.org/1999/xlink" id="Icons_Bell" overflow="hidden"><path d=" M 80.4 70.4 C 76.7 62.2 67.6 59.3 67 35 L 67 35.1 C 66.7 28.1 62.6 22.2 56.8 19.2 C 57 18.5 57.1 17.8 57.1 17.1 C 57.1 12.1 53.1 8.1 48.1 8.1 C 43.1 8.1 39.1 12.1 39.1 17.1 C 39.1 17.8 39.2 18.6 39.4 19.2 C 33.6 22.2 29.5 28.2 29.2 35.1 L 29.2 35 C 28.6 59.3 19.5 62.2 15.8 70.4 C 14.8 71.7 14.2 73 14.2 74.5 C 14 82 29.2 88 48 88 C 66.8 88 82 82 82 74.5 C 82 73.1 81.5 71.7 80.4 70.4 Z M 48 12 C 50.8 12 53 14.2 53 17 C 53 17.2 53 17.4 52.9 17.7 C 51.4 17.2 49.7 17 48 17 C 46.3 17 44.6 17.2 43.1 17.7 C 43.1 17.5 43 17.3 43 17 C 43 14.2 45.2 12 48 12 Z M 48 82 C 30.5 82 21 76.7 20 74.5 C 20.8 72.6 28.5 68.1 42.6 67.2 C 42.2 68 41.9 69 41.9 70 C 41.9 73.3 44.6 76 48 76 C 51.4 76 54.1 73.3 54.1 70 C 54.1 69 53.8 68 53.4 67.2 C 67.5 68.1 75.2 72.6 76 74.5 C 75 76.7 65.5 82 48 82 Z"/></svg>